<svg class="marks" width="716" height="179" viewBox="0 0 716 179" version="1.1" xmlns="http://www.w3.org/2000/svg" xmlns:xlink="http://www.w3.org/1999/xlink"><defs><clipPath id="clip4"><rect x="0" y="0" width="180" height="130"></rect></clipPath><clipPath id="clip5"><rect x="0" y="0" width="180" height="130"></rect></clipPath><clipPath id="clip6"><rect x="0" y="0" width="180" height="130"></rect></clipPath><clipPath id="clip7"><rect x="0" y="0" width="180" height="130"></rect></clipPath><clipPath id="clip8"><rect x="0" y="0" width="180" height="130"></rect></clipPath><clipPath id="clip9"><rect x="0" y="0" width="180" height="130"></rect></clipPath></defs><g transform="translate(45,11)"><g class="mark-group role-frame root"><g transform="translate(0,0)"><path class="background" d="M0,0h180v130h-180Z" style="fill: none;"></path><g><g class="mark-group role-scope child__repeat_column_NU_NOTA_REDACAO_group"><g transform="translate(0,0)"><path class="background" d="M0.5,0.5h180v130h-180Z" style="fill: none; stroke: #ddd;"></path><g><g class="mark-group role-axis"><g transform="translate(0.5,0.5)"><path class="background" d="M0,0h0v0h0Z" style="pointer-events: none; fill: none;"></path><g><g class="mark-rule role-axis-grid" style="pointer-events: none;"><line transform="translate(0,130)" x2="180" y2="0" style="fill: none; stroke: #ddd; stroke-width: 1; opacity: 1;"></line><line transform="translate(0,104)" x2="180" y2="0" style="fill: none; stroke: #ddd; stroke-width: 1; opacity: 1;"></line><line transform="translate(0,78)" x2="180" y2="0" style="fill: none; stroke: #ddd; stroke-width: 1; opacity: 1;"></line><line transform="translate(0,52)" x2="180" y2="0" style="fill: none; stroke: #ddd; stroke-width: 1; opacity: 1;"></line><line transform="translate(0,26)" x2="180" y2="0" style="fill: none; stroke: #ddd; stroke-width: 1; opacity: 1;"></line><line transform="translate(0,0)" x2="180" y2="0" style="fill: none; stroke: #ddd; stroke-width: 1; opacity: 1;"></line></g></g></g></g><g class="mark-rect role-mark selector011_brush_bg" clip-path="url(#clip4)"><path d="M80.96875,0h29v130h-29Z" style="fill: #333; fill-opacity: 0.125;"></path></g><g class="mark-rect role-mark child__repeat_column_NU_NOTA_REDACAO_layer_0_marks"><path d="M101,17.42h9.000000000000014v112.58h-9.000000000000014Z" style="fill: #4c78a8;"></path><path d="M81,0.2599999999999909h9v129.74h-9Z" style="fill: #4c78a8;"></path><path d="M91,26.25999999999999h9v103.74000000000001h-9Z" style="fill: #4c78a8;"></path><path d="M71,65.78h9v64.22h-9Z" style="fill: #4c78a8;"></path><path d="M121,87.1h9v42.900000000000006h-9Z" style="fill: #4c78a8;"></path><path d="M141,106.86h9v23.14h-9Z" style="fill: #4c78a8;"></path><path d="M51,105.3h9v24.700000000000003h-9Z" style="fill: #4c78a8;"></path><path d="M111.00000000000001,87.62h8.999999999999986v42.379999999999995h-8.999999999999986Z" style="fill: #4c78a8;"></path><path d="M61,75.92h9v54.08h-9Z" style="fill: #4c78a8;"></path><path d="M41,113.36h9v16.64h-9Z" style="fill: #4c78a8;"></path><path d="M131,111.54h9v18.459999999999994h-9Z" style="fill: #4c78a8;"></path><path d="M161,123.24h9v6.760000000000005h-9Z" style="fill: #4c78a8;"></path><path d="M151,125.58h9v4.420000000000002h-9Z" style="fill: #4c78a8;"></path><path d="M31,126.1h9v3.9000000000000057h-9Z" style="fill: #4c78a8;"></path><path d="M1,129.74h9v0.2599999999999909h-9Z" style="fill: #4c78a8;"></path><path d="M21,128.7h9v1.3000000000000114h-9Z" style="fill: #4c78a8;"></path><path d="M11,129.74h9v0.2599999999999909h-9Z" style="fill: #4c78a8;"></path><path d="M171,129.48h9v0.5200000000000102h-9Z" style="fill: #4c78a8;"></path></g><g class="mark-rect role-mark child__repeat_column_NU_NOTA_REDACAO_layer_1_marks"><path d="M81,35.88000000000001h9v94.11999999999999h-9Z" style="fill: red;"></path><path d="M91,26.25999999999999h9v103.74000000000001h-9Z" style="fill: red;"></path><path d="M101,17.42h9.000000000000014v112.58h-9.000000000000014Z" style="fill: red;"></path></g><g class="mark-rect role-mark selector011_brush" clip-path="url(#clip5)"><path d="M80.96875,0h29v130h-29Z" style="fill: none; stroke: white;"></path></g><g class="mark-group role-axis"><g transform="translate(0.5,130.5)"><path class="background" d="M0,0h0v0h0Z" style="pointer-events: none; fill: none;"></path><g><g class="mark-rule role-axis-tick" style="pointer-events: none;"><line transform="translate(0,0)" x2="0" y2="5" style="fill: none; stroke: #888; stroke-width: 1; opacity: 1;"></line><line transform="translate(10,0)" x2="0" y2="5" style="fill: none; stroke: #888; stroke-width: 1; opacity: 1;"></line><line transform="translate(20,0)" x2="0" y2="5" style="fill: none; stroke: #888; stroke-width: 1; opacity: 1;"></line><line transform="translate(30,0)" x2="0" y2="5" style="fill: none; stroke: #888; stroke-width: 1; opacity: 1;"></line><line transform="translate(40,0)" x2="0" y2="5" style="fill: none; stroke: #888; stroke-width: 1; opacity: 1;"></line><line transform="translate(50,0)" x2="0" y2="5" style="fill: none; stroke: #888; stroke-width: 1; opacity: 1;"></line><line transform="translate(60,0)" x2="0" y2="5" style="fill: none; stroke: #888; stroke-width: 1; opacity: 1;"></line><line transform="translate(70,0)" x2="0" y2="5" style="fill: none; stroke: #888; stroke-width: 1; opacity: 1;"></line><line transform="translate(80,0)" x2="0" y2="5" style="fill: none; stroke: #888; stroke-width: 1; opacity: 1;"></line><line transform="translate(90,0)" x2="0" y2="5" style="fill: none; stroke: #888; stroke-width: 1; opacity: 1;"></line><line transform="translate(100,0)" x2="0" y2="5" style="fill: none; stroke: #888; stroke-width: 1; opacity: 1;"></line><line transform="translate(110,0)" x2="0" y2="5" style="fill: none; stroke: #888; stroke-width: 1; opacity: 1;"></line><line transform="translate(120,0)" x2="0" y2="5" style="fill: none; stroke: #888; stroke-width: 1; opacity: 1;"></line><line transform="translate(130,0)" x2="0" y2="5" style="fill: none; stroke: #888; stroke-width: 1; opacity: 1;"></line><line transform="translate(140,0)" x2="0" y2="5" style="fill: none; stroke: #888; stroke-width: 1; opacity: 1;"></line><line transform="translate(150,0)" x2="0" y2="5" style="fill: none; stroke: #888; stroke-width: 1; opacity: 1;"></line><line transform="translate(160,0)" x2="0" y2="5" style="fill: none; stroke: #888; stroke-width: 1; opacity: 1;"></line><line transform="translate(170,0)" x2="0" y2="5" style="fill: none; stroke: #888; stroke-width: 1; opacity: 1;"></line><line transform="translate(180,0)" x2="0" y2="5" style="fill: none; stroke: #888; stroke-width: 1; opacity: 1;"></line></g><g class="mark-text role-axis-label" style="pointer-events: none;"><text text-anchor="start" transform="translate(0,15)" style="font-family: sans-serif; font-size: 10px; fill: #000; opacity: 1;">100</text><text text-anchor="middle" transform="translate(10,15)" style="font-family: sans-serif; font-size: 10px; fill: #000; opacity: 0;">150</text><text text-anchor="middle" transform="translate(20,15)" style="font-family: sans-serif; font-size: 10px; fill: #000; opacity: 0;">200</text><text text-anchor="middle" transform="translate(30,15)" style="font-family: sans-serif; font-size: 10px; fill: #000; opacity: 0;">250</text><text text-anchor="middle" transform="translate(40,15)" style="font-family: sans-serif; font-size: 10px; fill: #000; opacity: 1;">300</text><text text-anchor="middle" transform="translate(50,15)" style="font-family: sans-serif; font-size: 10px; fill: #000; opacity: 0;">350</text><text text-anchor="middle" transform="translate(60,15)" style="font-family: sans-serif; font-size: 10px; fill: #000; opacity: 0;">400</text><text text-anchor="middle" transform="translate(70,15)" style="font-family: sans-serif; font-size: 10px; fill: #000; opacity: 0;">450</text><text text-anchor="middle" transform="translate(80,15)" style="font-family: sans-serif; font-size: 10px; fill: #000; opacity: 1;">500</text><text text-anchor="middle" transform="translate(90,15)" style="font-family: sans-serif; font-size: 10px; fill: #000; opacity: 0;">550</text><text text-anchor="middle" transform="translate(100,15)" style="font-family: sans-serif; font-size: 10px; fill: #000; opacity: 0;">600</text><text text-anchor="middle" transform="translate(110.00000000000001,15)" style="font-family: sans-serif; font-size: 10px; fill: #000; opacity: 0;">650</text><text text-anchor="middle" transform="translate(120,15)" style="font-family: sans-serif; font-size: 10px; fill: #000; opacity: 1;">700</text><text text-anchor="middle" transform="translate(130,15)" style="font-family: sans-serif; font-size: 10px; fill: #000; opacity: 0;">750</text><text text-anchor="middle" transform="translate(140,15)" style="font-family: sans-serif; font-size: 10px; fill: #000; opacity: 0;">800</text><text text-anchor="middle" transform="translate(150,15)" style="font-family: sans-serif; font-size: 10px; fill: #000; opacity: 0;">850</text><text text-anchor="middle" transform="translate(160,15)" style="font-family: sans-serif; font-size: 10px; fill: #000; opacity: 1;">900</text><text text-anchor="middle" transform="translate(170,15)" style="font-family: sans-serif; font-size: 10px; fill: #000; opacity: 0;">950</text><text text-anchor="end" transform="translate(180,15)" style="font-family: sans-serif; font-size: 10px; fill: #000; opacity: 0;">1,000</text></g><g class="mark-rule role-axis-domain" style="pointer-events: none;"><line transform="translate(0,0)" x2="180" y2="0" style="fill: none; stroke: #888; stroke-width: 1; opacity: 1;"></line></g><g class="mark-text role-axis-title" style="pointer-events: none;"><text text-anchor="middle" transform="translate(90,30)" style="font-family: sans-serif; font-size: 11px; font-weight: bold; fill: #000; opacity: 1;">NU_NOTA_REDACAO (binned)</text></g></g></g></g><g class="mark-group role-axis"><g transform="translate(0.5,0.5)"><path class="background" d="M0,0h0v0h0Z" style="pointer-events: none; fill: none;"></path><g><g class="mark-rule role-axis-tick" style="pointer-events: none;"><line transform="translate(0,130)" x2="-5" y2="0" style="fill: none; stroke: #888; stroke-width: 1; opacity: 1;"></line><line transform="translate(0,104)" x2="-5" y2="0" style="fill: none; stroke: #888; stroke-width: 1; opacity: 1;"></line><line transform="translate(0,78)" x2="-5" y2="0" style="fill: none; stroke: #888; stroke-width: 1; opacity: 1;"></line><line transform="translate(0,52)" x2="-5" y2="0" style="fill: none; stroke: #888; stroke-width: 1; opacity: 1;"></line><line transform="translate(0,26)" x2="-5" y2="0" style="fill: none; stroke: #888; stroke-width: 1; opacity: 1;"></line><line transform="translate(0,0)" x2="-5" y2="0" style="fill: none; stroke: #888; stroke-width: 1; opacity: 1;"></line></g><g class="mark-text role-axis-label" style="pointer-events: none;"><text text-anchor="end" transform="translate(-7,133)" style="font-family: sans-serif; font-size: 10px; fill: #000; opacity: 1;">0</text><text text-anchor="end" transform="translate(-7,107)" style="font-family: sans-serif; font-size: 10px; fill: #000; opacity: 1;">100</text><text text-anchor="end" transform="translate(-7,81)" style="font-family: sans-serif; font-size: 10px; fill: #000; opacity: 1;">200</text><text text-anchor="end" transform="translate(-7,55)" style="font-family: sans-serif; font-size: 10px; fill: #000; opacity: 1;">300</text><text text-anchor="end" transform="translate(-7,29)" style="font-family: sans-serif; font-size: 10px; fill: #000; opacity: 1;">400</text><text text-anchor="end" transform="translate(-7,3)" style="font-family: sans-serif; font-size: 10px; fill: #000; opacity: 1;">500</text></g><g class="mark-rule role-axis-domain" style="pointer-events: none;"><line transform="translate(0,130)" x2="0" y2="-130" style="fill: none; stroke: #888; stroke-width: 1; opacity: 1;"></line></g><g class="mark-text role-axis-title" style="pointer-events: none;"><text text-anchor="middle" transform="translate(-27.6845703125,65) rotate(-90) translate(0,-2)" style="font-family: sans-serif; font-size: 11px; font-weight: bold; fill: #000; opacity: 1;">Count of Records</text></g></g></g></g></g></g></g><g class="mark-group role-scope child__repeat_column_NU_NOTA_MT_group"><g transform="translate(242,0)"><path class="background" d="M0.5,0.5h180v130h-180Z" style="fill: none; stroke: #ddd;"></path><g><g class="mark-group role-axis"><g transform="translate(0.5,0.5)"><path class="background" d="M0,0h0v0h0Z" style="pointer-events: none; fill: none;"></path><g><g class="mark-rule role-axis-grid" style="pointer-events: none;"><line transform="translate(0,130)" x2="180" y2="0" style="fill: none; stroke: #ddd; stroke-width: 1; opacity: 1;"></line><line transform="translate(0,104)" x2="180" y2="0" style="fill: none; stroke: #ddd; stroke-width: 1; opacity: 1;"></line><line transform="translate(0,78)" x2="180" y2="0" style="fill: none; stroke: #ddd; stroke-width: 1; opacity: 1;"></line><line transform="translate(0,52)" x2="180" y2="0" style="fill: none; stroke: #ddd; stroke-width: 1; opacity: 1;"></line><line transform="translate(0,26)" x2="180" y2="0" style="fill: none; stroke: #ddd; stroke-width: 1; opacity: 1;"></line><line transform="translate(0,0)" x2="180" y2="0" style="fill: none; stroke: #ddd; stroke-width: 1; opacity: 1;"></line></g></g></g></g><g class="mark-rect role-mark selector011_brush_bg" clip-path="url(#clip6)"><path d="M0,0h0v0h0Z" style="fill: #333; fill-opacity: 0.125;"></path></g><g class="mark-rect role-mark child__repeat_column_NU_NOTA_MT_layer_0_marks"><path d="M84.07692307692308,80.6h12.84615384615384v49.400000000000006h-12.84615384615384Z" style="fill: #4c78a8;"></path><path d="M1,81.9h12.846153846153847v48.099999999999994h-12.846153846153847Z" style="fill: #4c78a8;"></path><path d="M56.38461538461539,36.92h12.846153846153854v93.08h-12.846153846153854Z" style="fill: #4c78a8;"></path><path d="M14.846153846153847,36.92h12.846153846153847v93.08h-12.846153846153847Z" style="fill: #4c78a8;"></path><path d="M42.53846153846154,25.47999999999999h12.846153846153847v104.52000000000001h-12.846153846153847Z" style="fill: #4c78a8;"></path><path d="M70.23076923076924,51.480000000000004h12.84615384615384v78.52h-12.84615384615384Z" style="fill: #4c78a8;"></path><path d="M28.692307692307693,12.739999999999995h12.846153846153847v117.26h-12.846153846153847Z" style="fill: #4c78a8;"></path><path d="M97.92307692307692,92.03999999999999h12.846153846153854v37.96000000000001h-12.846153846153854Z" style="fill: #4c78a8;"></path><path d="M111.76923076923077,113.62h12.84615384615384v16.379999999999995h-12.84615384615384Z" style="fill: #4c78a8;"></path><path d="M125.61538461538461,120.9h12.846153846153868v9.099999999999994h-12.846153846153868Z" style="fill: #4c78a8;"></path><path d="M167.15384615384616,129.48h12.84615384615384v0.5200000000000102h-12.84615384615384Z" style="fill: #4c78a8;"></path><path d="M139.46153846153848,128.44h12.846153846153811v1.5600000000000023h-12.846153846153811Z" style="fill: #4c78a8;"></path><path d="M153.3076923076923,129.48h12.846153846153868v0.5200000000000102h-12.846153846153868Z" style="fill: #4c78a8;"></path></g><g class="mark-rect role-mark child__repeat_column_NU_NOTA_MT_layer_1_marks"><path d="M14.846153846153847,86.84h12.846153846153847v43.16h-12.846153846153847Z" style="fill: red;"></path><path d="M42.53846153846154,77.47999999999999h12.846153846153847v52.52000000000001h-12.846153846153847Z" style="fill: red;"></path><path d="M70.23076923076924,92.56h12.84615384615384v37.44h-12.84615384615384Z" style="fill: red;"></path><path d="M28.692307692307693,72.02h12.846153846153847v57.980000000000004h-12.846153846153847Z" style="fill: red;"></path><path d="M1,110.76h12.846153846153847v19.239999999999995h-12.846153846153847Z" style="fill: red;"></path><path d="M56.38461538461539,76.96000000000001h12.846153846153854v53.03999999999999h-12.846153846153854Z" style="fill: red;"></path><path d="M97.92307692307692,112.58h12.846153846153854v17.42h-12.846153846153854Z" style="fill: red;"></path><path d="M84.07692307692308,106.6h12.84615384615384v23.400000000000006h-12.84615384615384Z" style="fill: red;"></path><path d="M111.76923076923077,124.54h12.84615384615384v5.459999999999994h-12.84615384615384Z" style="fill: red;"></path><path d="M125.61538461538461,129.22h12.846153846153868v0.7800000000000011h-12.846153846153868Z" style="fill: red;"></path></g><g class="mark-rect role-mark selector011_brush" clip-path="url(#clip7)"><path d="M0,0h0v0h0Z" style="fill: none;"></path></g><g class="mark-group role-axis"><g transform="translate(0.5,130.5)"><path class="background" d="M0,0h0v0h0Z" style="pointer-events: none; fill: none;"></path><g><g class="mark-rule role-axis-tick" style="pointer-events: none;"><line transform="translate(0,0)" x2="0" y2="5" style="fill: none; stroke: #888; stroke-width: 1; opacity: 1;"></line><line transform="translate(14,0)" x2="0" y2="5" style="fill: none; stroke: #888; stroke-width: 1; opacity: 1;"></line><line transform="translate(28,0)" x2="0" y2="5" style="fill: none; stroke: #888; stroke-width: 1; opacity: 1;"></line><line transform="translate(42,0)" x2="0" y2="5" style="fill: none; stroke: #888; stroke-width: 1; opacity: 1;"></line><line transform="translate(55,0)" x2="0" y2="5" style="fill: none; stroke: #888; stroke-width: 1; opacity: 1;"></line><line transform="translate(69,0)" x2="0" y2="5" style="fill: none; stroke: #888; stroke-width: 1; opacity: 1;"></line><line transform="translate(83,0)" x2="0" y2="5" style="fill: none; stroke: #888; stroke-width: 1; opacity: 1;"></line><line transform="translate(97,0)" x2="0" y2="5" style="fill: none; stroke: #888; stroke-width: 1; opacity: 1;"></line><line transform="translate(111,0)" x2="0" y2="5" style="fill: none; stroke: #888; stroke-width: 1; opacity: 1;"></line><line transform="translate(125,0)" x2="0" y2="5" style="fill: none; stroke: #888; stroke-width: 1; opacity: 1;"></line><line transform="translate(138,0)" x2="0" y2="5" style="fill: none; stroke: #888; stroke-width: 1; opacity: 1;"></line><line transform="translate(152,0)" x2="0" y2="5" style="fill: none; stroke: #888; stroke-width: 1; opacity: 1;"></line><line transform="translate(166,0)" x2="0" y2="5" style="fill: none; stroke: #888; stroke-width: 1; opacity: 1;"></line><line transform="translate(180,0)" x2="0" y2="5" style="fill: none; stroke: #888; stroke-width: 1; opacity: 1;"></line></g><g class="mark-text role-axis-label" style="pointer-events: none;"><text text-anchor="start" transform="translate(0,15)" style="font-family: sans-serif; font-size: 10px; fill: #000; opacity: 1;">350</text><text text-anchor="middle" transform="translate(13.846153846153847,15)" style="font-family: sans-serif; font-size: 10px; fill: #000; opacity: 0;">400</text><text text-anchor="middle" transform="translate(27.692307692307693,15)" style="font-family: sans-serif; font-size: 10px; fill: #000; opacity: 1;">450</text><text text-anchor="middle" transform="translate(41.53846153846154,15)" style="font-family: sans-serif; font-size: 10px; fill: #000; opacity: 0;">500</text><text text-anchor="middle" transform="translate(55.38461538461539,15)" style="font-family: sans-serif; font-size: 10px; fill: #000; opacity: 1;">550</text><text text-anchor="middle" transform="translate(69.23076923076924,15)" style="font-family: sans-serif; font-size: 10px; fill: #000; opacity: 0;">600</text><text text-anchor="middle" transform="translate(83.07692307692308,15)" style="font-family: sans-serif; font-size: 10px; fill: #000; opacity: 1;">650</text><text text-anchor="middle" transform="translate(96.92307692307692,15)" style="font-family: sans-serif; font-size: 10px; fill: #000; opacity: 0;">700</text><text text-anchor="middle" transform="translate(110.76923076923077,15)" style="font-family: sans-serif; font-size: 10px; fill: #000; opacity: 1;">750</text><text text-anchor="middle" transform="translate(124.61538461538461,15)" style="font-family: sans-serif; font-size: 10px; fill: #000; opacity: 0;">800</text><text text-anchor="middle" transform="translate(138.46153846153848,15)" style="font-family: sans-serif; font-size: 10px; fill: #000; opacity: 1;">850</text><text text-anchor="middle" transform="translate(152.3076923076923,15)" style="font-family: sans-serif; font-size: 10px; fill: #000; opacity: 0;">900</text><text text-anchor="middle" transform="translate(166.15384615384616,15)" style="font-family: sans-serif; font-size: 10px; fill: #000; opacity: 1;">950</text><text text-anchor="end" transform="translate(180,15)" style="font-family: sans-serif; font-size: 10px; fill: #000; opacity: 0;">1,000</text></g><g class="mark-rule role-axis-domain" style="pointer-events: none;"><line transform="translate(0,0)" x2="180" y2="0" style="fill: none; stroke: #888; stroke-width: 1; opacity: 1;"></line></g><g class="mark-text role-axis-title" style="pointer-events: none;"><text text-anchor="middle" transform="translate(90,30)" style="font-family: sans-serif; font-size: 11px; font-weight: bold; fill: #000; opacity: 1;">NU_NOTA_MT (binned)</text></g></g></g></g><g class="mark-group role-axis"><g transform="translate(0.5,0.5)"><path class="background" d="M0,0h0v0h0Z" style="pointer-events: none; fill: none;"></path><g><g class="mark-rule role-axis-tick" style="pointer-events: none;"><line transform="translate(0,130)" x2="-5" y2="0" style="fill: none; stroke: #888; stroke-width: 1; opacity: 1;"></line><line transform="translate(0,104)" x2="-5" y2="0" style="fill: none; stroke: #888; stroke-width: 1; opacity: 1;"></line><line transform="translate(0,78)" x2="-5" y2="0" style="fill: none; stroke: #888; stroke-width: 1; opacity: 1;"></line><line transform="translate(0,52)" x2="-5" y2="0" style="fill: none; stroke: #888; stroke-width: 1; opacity: 1;"></line><line transform="translate(0,26)" x2="-5" y2="0" style="fill: none; stroke: #888; stroke-width: 1; opacity: 1;"></line><line transform="translate(0,0)" x2="-5" y2="0" style="fill: none; stroke: #888; stroke-width: 1; opacity: 1;"></line></g><g class="mark-text role-axis-label" style="pointer-events: none;"><text text-anchor="end" transform="translate(-7,133)" style="font-family: sans-serif; font-size: 10px; fill: #000; opacity: 1;">0</text><text text-anchor="end" transform="translate(-7,107)" style="font-family: sans-serif; font-size: 10px; fill: #000; opacity: 1;">100</text><text text-anchor="end" transform="translate(-7,81)" style="font-family: sans-serif; font-size: 10px; fill: #000; opacity: 1;">200</text><text text-anchor="end" transform="translate(-7,55)" style="font-family: sans-serif; font-size: 10px; fill: #000; opacity: 1;">300</text><text text-anchor="end" transform="translate(-7,29)" style="font-family: sans-serif; font-size: 10px; fill: #000; opacity: 1;">400</text><text text-anchor="end" transform="translate(-7,3)" style="font-family: sans-serif; font-size: 10px; fill: #000; opacity: 1;">500</text></g><g class="mark-rule role-axis-domain" style="pointer-events: none;"><line transform="translate(0,130)" x2="0" y2="-130" style="fill: none; stroke: #888; stroke-width: 1; opacity: 1;"></line></g><g class="mark-text role-axis-title" style="pointer-events: none;"><text text-anchor="middle" transform="translate(-27.6845703125,65) rotate(-90) translate(0,-2)" style="font-family: sans-serif; font-size: 11px; font-weight: bold; fill: #000; opacity: 1;">Count of Records</text></g></g></g></g></g></g></g><g class="mark-group role-scope child__repeat_column_Q006_group"><g transform="translate(484,0)"><path class="background" d="M0.5,0.5h180v130h-180Z" style="fill: none; stroke: #ddd;"></path><g><g class="mark-group role-axis"><g transform="translate(0.5,0.5)"><path class="background" d="M0,0h0v0h0Z" style="pointer-events: none; fill: none;"></path><g><g class="mark-rule role-axis-grid" style="pointer-events: none;"><line transform="translate(0,130)" x2="180" y2="0" style="fill: none; stroke: #ddd; stroke-width: 1; opacity: 1;"></line><line transform="translate(0,98)" x2="180" y2="0" style="fill: none; stroke: #ddd; stroke-width: 1; opacity: 1;"></line><line transform="translate(0,65)" x2="180" y2="0" style="fill: none; stroke: #ddd; stroke-width: 1; opacity: 1;"></line><line transform="translate(0,33)" x2="180" y2="0" style="fill: none; stroke: #ddd; stroke-width: 1; opacity: 1;"></line><line transform="translate(0,0)" x2="180" y2="0" style="fill: none; stroke: #ddd; stroke-width: 1; opacity: 1;"></line></g></g></g></g><g class="mark-rect role-mark selector011_brush_bg" clip-path="url(#clip8)"><path d="M0,0h0v0h0Z" style="fill: #333; fill-opacity: 0.125;"></path></g><g class="mark-rect role-mark child__repeat_column_Q006_layer_0_marks"><path d="M19,51.35000000000001h8v78.64999999999999h-8Z" style="fill: #4c78a8;"></path><path d="M37,98.9625h8v31.037499999999994h-8Z" style="fill: #4c78a8;"></path><path d="M10,9.099999999999994h8v120.9h-8Z" style="fill: #4c78a8;"></path><path d="M172,121.55h8v8.450000000000003h-8Z" style="fill: #4c78a8;"></path><path d="M100.00000000000001,119.925h7.999999999999986v10.075000000000003h-7.999999999999986Z" style="fill: #4c78a8;"></path><path d="M1,76.7h8v53.3h-8Z" style="fill: #4c78a8;"></path><path d="M46,107.7375h8v22.262500000000003h-8Z" style="fill: #4c78a8;"></path><path d="M28,89.5375h8v40.462500000000006h-8Z" style="fill: #4c78a8;"></path><path d="M126.99999999999999,125.45h8.000000000000014v4.549999999999997h-8.000000000000014Z" style="fill: #4c78a8;"></path><path d="M163,124.6375h8v5.362499999999997h-8Z" style="fill: #4c78a8;"></path><path d="M63.99999999999999,121.225h8.000000000000007v8.775000000000006h-8.000000000000007Z" style="fill: #4c78a8;"></path><path d="M55,118.3h7.999999999999993v11.700000000000003h-7.999999999999993Z" style="fill: #4c78a8;"></path><path d="M73,123.175h8v6.825000000000003h-8Z" style="fill: #4c78a8;"></path><path d="M82,126.1h8v3.9000000000000057h-8Z" style="fill: #4c78a8;"></path></g><g class="mark-rect role-mark child__repeat_column_Q006_layer_1_marks"><path d="M10,71.175h8v58.825h-8Z" style="fill: red;"></path><path d="M1,106.1125h8v23.887500000000003h-8Z" style="fill: red;"></path><path d="M28,107.25h8v22.75h-8Z" style="fill: red;"></path><path d="M19,92.95h8v37.05h-8Z" style="fill: red;"></path><path d="M172,126.5875h8v3.4124999999999943h-8Z" style="fill: red;"></path><path d="M55,123.175h7.999999999999993v6.825000000000003h-7.999999999999993Z" style="fill: red;"></path><path d="M37,115.5375h8v14.462500000000006h-8Z" style="fill: red;"></path><path d="M46,121.0625h8v8.9375h-8Z" style="fill: red;"></path><path d="M73,126.5875h8v3.4124999999999943h-8Z" style="fill: red;"></path><path d="M82,127.8875h8v2.112499999999997h-8Z" style="fill: red;"></path><path d="M100.00000000000001,126.2625h7.999999999999986v3.737499999999997h-7.999999999999986Z" style="fill: red;"></path><path d="M163,128.2125h8v1.7874999999999943h-8Z" style="fill: red;"></path><path d="M126.99999999999999,128.05h8.000000000000014v1.9499999999999886h-8.000000000000014Z" style="fill: red;"></path><path d="M63.99999999999999,125.125h8.000000000000007v4.875h-8.000000000000007Z" style="fill: red;"></path></g><g class="mark-rect role-mark selector011_brush" clip-path="url(#clip9)"><path d="M0,0h0v0h0Z" style="fill: none;"></path></g><g class="mark-group role-axis"><g transform="translate(0.5,130.5)"><path class="background" d="M0,0h0v0h0Z" style="pointer-events: none; fill: none;"></path><g><g class="mark-rule role-axis-tick" style="pointer-events: none;"><line transform="translate(0,0)" x2="0" y2="5" style="fill: none; stroke: #888; stroke-width: 1; opacity: 1;"></line><line transform="translate(9,0)" x2="0" y2="5" style="fill: none; stroke: #888; stroke-width: 1; opacity: 1;"></line><line transform="translate(18,0)" x2="0" y2="5" style="fill: none; stroke: #888; stroke-width: 1; opacity: 1;"></line><line transform="translate(27,0)" x2="0" y2="5" style="fill: none; stroke: #888; stroke-width: 1; opacity: 1;"></line><line transform="translate(36,0)" x2="0" y2="5" style="fill: none; stroke: #888; stroke-width: 1; opacity: 1;"></line><line transform="translate(45,0)" x2="0" y2="5" style="fill: none; stroke: #888; stroke-width: 1; opacity: 1;"></line><line transform="translate(54,0)" x2="0" y2="5" style="fill: none; stroke: #888; stroke-width: 1; opacity: 1;"></line><line transform="translate(63,0)" x2="0" y2="5" style="fill: none; stroke: #888; stroke-width: 1; opacity: 1;"></line><line transform="translate(72,0)" x2="0" y2="5" style="fill: none; stroke: #888; stroke-width: 1; opacity: 1;"></line><line transform="translate(81,0)" x2="0" y2="5" style="fill: none; stroke: #888; stroke-width: 1; opacity: 1;"></line><line transform="translate(90,0)" x2="0" y2="5" style="fill: none; stroke: #888; stroke-width: 1; opacity: 1;"></line><line transform="translate(99,0)" x2="0" y2="5" style="fill: none; stroke: #888; stroke-width: 1; opacity: 1;"></line><line transform="translate(108,0)" x2="0" y2="5" style="fill: none; stroke: #888; stroke-width: 1; opacity: 1;"></line><line transform="translate(117,0)" x2="0" y2="5" style="fill: none; stroke: #888; stroke-width: 1; opacity: 1;"></line><line transform="translate(126,0)" x2="0" y2="5" style="fill: none; stroke: #888; stroke-width: 1; opacity: 1;"></line><line transform="translate(135,0)" x2="0" y2="5" style="fill: none; stroke: #888; stroke-width: 1; opacity: 1;"></line><line transform="translate(144,0)" x2="0" y2="5" style="fill: none; stroke: #888; stroke-width: 1; opacity: 1;"></line><line transform="translate(153,0)" x2="0" y2="5" style="fill: none; stroke: #888; stroke-width: 1; opacity: 1;"></line><line transform="translate(162,0)" x2="0" y2="5" style="fill: none; stroke: #888; stroke-width: 1; opacity: 1;"></line><line transform="translate(171,0)" x2="0" y2="5" style="fill: none; stroke: #888; stroke-width: 1; opacity: 1;"></line><line transform="translate(180,0)" x2="0" y2="5" style="fill: none; stroke: #888; stroke-width: 1; opacity: 1;"></line></g><g class="mark-text role-axis-label" style="pointer-events: none;"><text text-anchor="start" transform="translate(0,15)" style="font-family: sans-serif; font-size: 10px; fill: #000; opacity: 1;">0</text><text text-anchor="middle" transform="translate(9,15)" style="font-family: sans-serif; font-size: 10px; fill: #000; opacity: 0;">1,000</text><text text-anchor="middle" transform="translate(18,15)" style="font-family: sans-serif; font-size: 10px; fill: #000; opacity: 0;">2,000</text><text text-anchor="middle" transform="translate(27,15)" style="font-family: sans-serif; font-size: 10px; fill: #000; opacity: 0;">3,000</text><text text-anchor="middle" transform="translate(36,15)" style="font-family: sans-serif; font-size: 10px; fill: #000; opacity: 0;">4,000</text><text text-anchor="middle" transform="translate(45,15)" style="font-family: sans-serif; font-size: 10px; fill: #000; opacity: 0;">5,000</text><text text-anchor="middle" transform="translate(54,15)" style="font-family: sans-serif; font-size: 10px; fill: #000; opacity: 0;">6,000</text><text text-anchor="middle" transform="translate(62.99999999999999,15)" style="font-family: sans-serif; font-size: 10px; fill: #000; opacity: 0;">7,000</text><text text-anchor="middle" transform="translate(72,15)" style="font-family: sans-serif; font-size: 10px; fill: #000; opacity: 1;">8,000</text><text text-anchor="middle" transform="translate(81,15)" style="font-family: sans-serif; font-size: 10px; fill: #000; opacity: 0;">9,000</text><text text-anchor="middle" transform="translate(90,15)" style="font-family: sans-serif; font-size: 10px; fill: #000; opacity: 0;">10,000</text><text text-anchor="middle" transform="translate(99.00000000000001,15)" style="font-family: sans-serif; font-size: 10px; fill: #000; opacity: 0;">11,000</text><text text-anchor="middle" transform="translate(108,15)" style="font-family: sans-serif; font-size: 10px; fill: #000; opacity: 0;">12,000</text><text text-anchor="middle" transform="translate(117,15)" style="font-family: sans-serif; font-size: 10px; fill: #000; opacity: 0;">13,000</text><text text-anchor="middle" transform="translate(125.99999999999999,15)" style="font-family: sans-serif; font-size: 10px; fill: #000; opacity: 0;">14,000</text><text text-anchor="middle" transform="translate(135,15)" style="font-family: sans-serif; font-size: 10px; fill: #000; opacity: 0;">15,000</text><text text-anchor="middle" transform="translate(144,15)" style="font-family: sans-serif; font-size: 10px; fill: #000; opacity: 1;">16,000</text><text text-anchor="middle" transform="translate(153,15)" style="font-family: sans-serif; font-size: 10px; fill: #000; opacity: 0;">17,000</text><text text-anchor="middle" transform="translate(162,15)" style="font-family: sans-serif; font-size: 10px; fill: #000; opacity: 0;">18,000</text><text text-anchor="middle" transform="translate(171,15)" style="font-family: sans-serif; font-size: 10px; fill: #000; opacity: 0;">19,000</text><text text-anchor="end" transform="translate(180,15)" style="font-family: sans-serif; font-size: 10px; fill: #000; opacity: 0;">20,000</text></g><g class="mark-rule role-axis-domain" style="pointer-events: none;"><line transform="translate(0,0)" x2="180" y2="0" style="fill: none; stroke: #888; stroke-width: 1; opacity: 1;"></line></g><g class="mark-text role-axis-title" style="pointer-events: none;"><text text-anchor="middle" transform="translate(90,30)" style="font-family: sans-serif; font-size: 11px; font-weight: bold; fill: #000; opacity: 1;">Q006 (binned)</text></g></g></g></g><g class="mark-group role-axis"><g transform="translate(0.5,0.5)"><path class="background" d="M0,0h0v0h0Z" style="pointer-events: none; fill: none;"></path><g><g class="mark-rule role-axis-tick" style="pointer-events: none;"><line transform="translate(0,130)" x2="-5" y2="0" style="fill: none; stroke: #888; stroke-width: 1; opacity: 1;"></line><line transform="translate(0,98)" x2="-5" y2="0" style="fill: none; stroke: #888; stroke-width: 1; opacity: 1;"></line><line transform="translate(0,65)" x2="-5" y2="0" style="fill: none; stroke: #888; stroke-width: 1; opacity: 1;"></line><line transform="translate(0,33)" x2="-5" y2="0" style="fill: none; stroke: #888; stroke-width: 1; opacity: 1;"></line><line transform="translate(0,0)" x2="-5" y2="0" style="fill: none; stroke: #888; stroke-width: 1; opacity: 1;"></line></g><g class="mark-text role-axis-label" style="pointer-events: none;"><text text-anchor="end" transform="translate(-7,133)" style="font-family: sans-serif; font-size: 10px; fill: #000; opacity: 1;">0</text><text text-anchor="end" transform="translate(-7,100.5)" style="font-family: sans-serif; font-size: 10px; fill: #000; opacity: 1;">200</text><text text-anchor="end" transform="translate(-7,68)" style="font-family: sans-serif; font-size: 10px; fill: #000; opacity: 1;">400</text><text text-anchor="end" transform="translate(-7,35.5)" style="font-family: sans-serif; font-size: 10px; fill: #000; opacity: 1;">600</text><text text-anchor="end" transform="translate(-7,3)" style="font-family: sans-serif; font-size: 10px; fill: #000; opacity: 1;">800</text></g><g class="mark-rule role-axis-domain" style="pointer-events: none;"><line transform="translate(0,130)" x2="0" y2="-130" style="fill: none; stroke: #888; stroke-width: 1; opacity: 1;"></line></g><g class="mark-text role-axis-title" style="pointer-events: none;"><text text-anchor="middle" transform="translate(-27.6845703125,65) rotate(-90) translate(0,-2)" style="font-family: sans-serif; font-size: 11px; font-weight: bold; fill: #000; opacity: 1;">Count of Records</text></g></g></g></g></g></g></g></g></g></g></g></svg>